# File created by Blade
# Date/Time:  Mon Nov 18 18:33:23 2013
# Frame Rate: 100.000 fps
#------------------------------------------------------
:FULLY-SPECIFIED
:DEGREES
10
root 52.425784 0.161764 52.083041 -5.748814 4.594948 -128.946893
Spine 6.767221 -1.139607 -0.764877
Spine1 1.863502 1.133739 -1.655727
Spine2 0.627017 -2.843802 -1.739373
NeckDummy 0.001097 -0.011393 -0.013862 -0.732148 1.561083 -0.783783
Neck 24.162932 5.246778 30.476233
Head -0.296144 0.395057 0.123661 -32.940923 -3.967938 -0.620551
LeftShoulderDummy -0.068926 -0.015895 0.012120 -0.696941 1.424134 -0.591325
LeftShoulder 11.495253 -3.960363 18.796165
LeftArm -1.297746 42.721161 13.474355
LeftForeArm 92.308988
LeftForeArmRoll -27.902441
LeftHand -8.988792 2.734676 -2.846486
LeftHandThumb1 15.530632 12.466843
LeftHandIndex1 16.369389 40.755199
LeftHandPinky1 14.864820 45.876736
RightShoulderDummy -0.026811 0.012411 0.046868 -0.749778 -1.590684 0.873855
RightShoulder 7.897665 3.794125 21.447140
RightArm -53.334928 50.485267 -2.073583
RightForeArm 116.118163
RightForeArmRoll 7.425029
RightHand -17.462026 -16.310625 12.574629
RightHandThumb1 -0.995035 13.826182
RightHandIndex1 13.795125 59.756946
RightHandPinky1 19.241542 69.391220
LeftUpLeg 15.879017 11.195410 -8.598402
LeftLeg 30.943884
LeftFoot 0.428083 -0.606259 -0.346754 -11.301215 11.436550 -9.278281
LeftToeBase -1.463245
RightUpLeg 10.947528 13.090087 -7.616349
RightLeg 35.574427
RightFoot -0.398023 0.242436 0.099318 -1.863699 4.618760 -22.820453
RightToeBase -0.686643
11
root 52.371933 0.167897 52.144575 -5.694996 4.565112 -128.898996
Spine 6.772230 -1.122095 -0.754339
Spine1 1.867456 1.145203 -1.634255
Spine2 0.628215 -2.801583 -1.761019
NeckDummy 0.001080 -0.010823 -0.013922 -0.721891 1.571786 -0.772733
Neck 24.084041 5.245138 30.590355
Head -0.297050 0.395265 0.125650 -32.985113 -3.976551 -0.618852
LeftShoulderDummy -0.068367 -0.014897 0.011664 -0.686385 1.433854 -0.580382
LeftShoulder 11.438346 -3.968572 18.721215
LeftArm -1.182501 42.782860 13.451678
LeftForeArm 92.307613
LeftForeArmRoll -27.872884
LeftHand -8.927951 2.756744 -2.856934
LeftHandThumb1 15.439515 12.528107
LeftHandIndex1 16.412935 40.883305
LeftHandPinky1 14.137721 45.943539
RightShoulderDummy -0.026524 0.012821 0.046685 -0.739543 -1.601402 0.862305
RightShoulder 7.915703 3.781939 21.447660
RightArm -53.319293 50.390904 -2.181443
RightForeArm 116.153234
RightForeArmRoll 7.405523
RightHand -17.479311 -16.455764 12.614543
RightHandThumb1 -0.947953 13.941918
RightHandIndex1 13.822809 60.303020
RightHandPinky1 19.077072 69.538141
LeftUpLeg 15.884217 11.094722 -8.705048
LeftLeg 31.015979
LeftFoot 0.416608 -0.597767 -0.332161 -11.010318 11.507708 -9.311639
LeftToeBase -1.648946
RightUpLeg 10.943473 13.173488 -7.583625
RightLeg 35.438759
RightFoot -0.396980 0.242429 0.090259 -1.923454 4.676328 -22.730402
RightToeBase -0.670232
12
root 52.314647 0.174945 52.204207 -5.648495 4.551036 -128.814578
Spine 6.764279 -1.107702 -0.756059
Spine1 1.876942 1.149768 -1.638554
Spine2 0.636275 -2.771522 -1.779265
NeckDummy 0.001236 -0.010696 -0.014156 -0.705648 1.583419 -0.768795
Neck 23.987239 5.247599 30.674472
Head -0.300084 0.395860 0.126497 -33.002564 -4.025707 -0.650164
LeftShoulderDummy -0.067288 -0.014428 0.010708 -0.669746 1.445924 -0.579579
LeftShoulder 11.465642 -3.978532 18.690673
LeftArm -0.929268 42.761887 13.585733
LeftForeArm 92.288814
LeftForeArmRoll -27.748246
LeftHand -9.017982 2.839814 -2.846615
LeftHandThumb1 15.303394 12.540463
LeftHandIndex1 16.439534 40.597917
LeftHandPinky1 14.192258 45.954368
RightShoulderDummy -0.026339 0.012932 0.046012 -0.723245 -1.613177 0.858094
RightShoulder 7.977211 3.745107 21.476913
RightArm -53.212643 50.261256 -2.229165
RightForeArm 116.193845
RightForeArmRoll 7.432331
RightHand -17.531087 -16.040657 12.468691
RightHandThumb1 -1.243718 13.850357
RightHandIndex1 14.063284 59.435473
RightHandPinky1 19.367825 68.993881
LeftUpLeg 15.789818 10.968008 -8.816249
LeftLeg 31.119422
LeftFoot 0.395197 -0.597291 -0.320685 -10.596570 11.556368 -9.304093
LeftToeBase -2.067596
RightUpLeg 10.999336 13.296346 -7.535315
RightLeg 35.321015
RightFoot -0.401660 0.241880 0.082668 -2.088011 4.720385 -22.632070
RightToeBase -0.594133
13
root 52.257183 0.186403 52.255217 -5.659692 4.523366 -128.717485
Spine 6.796187 -1.106244 -0.755258
Spine1 1.902247 1.154745 -1.637940
Spine2 0.648878 -2.727597 -1.792901
NeckDummy 0.001242 -0.013962 -0.014493 -0.688521 1.590130 -0.758410
Neck 23.885612 5.245138 30.716289
Head -0.301716 0.395157 0.128056 -33.012727 -4.072017 -0.645258
LeftShoulderDummy -0.066704 -0.017449 0.009480 -0.652886 1.452899 -0.570257
LeftShoulder 11.380309 -3.945487 18.627397
LeftArm -0.821790 42.834625 13.615191
LeftForeArm 92.281254
LeftForeArmRoll -27.685292
LeftHand -8.943395 2.910628 -2.874515
LeftHandThumb1 15.454356 12.585060
LeftHandIndex1 16.442187 40.590000
LeftHandPinky1 14.198551 45.877609
RightShoulderDummy -0.025733 0.009451 0.045170 -0.706117 -1.620352 0.848330
RightShoulder 8.018220 3.708867 21.473761
RightArm -53.174546 50.179813 -2.364593
RightForeArm 116.204378
RightForeArmRoll 7.306823
RightHand -17.480347 -16.280511 12.547257
RightHandThumb1 -1.152164 13.992305
RightHandIndex1 14.124314 59.918363
RightHandPinky1 19.213610 69.239781
LeftUpLeg 15.705305 10.847206 -8.839809
LeftLeg 31.136168
LeftFoot 0.403070 -0.596902 -0.332594 -10.458776 11.610399 -9.343716
LeftToeBase -2.006649
RightUpLeg 11.198029 13.421870 -7.380713
RightLeg 35.111651
RightFoot -0.402653 0.244398 0.082562 -2.188984 4.597818 -22.485998
RightToeBase -0.655972
14
root 52.196523 0.197714 52.308390 -5.660819 4.515826 -128.647815
Spine 6.807784 -1.105713 -0.742517
Spine1 1.916579 1.154760 -1.611648
Spine2 0.673386 -2.674875 -1.857091
NeckDummy 0.001605 -0.016345 -0.015345 -0.677092 1.632870 -0.752337
Neck 23.833870 5.222174 30.725548
Head -0.300335 0.395000 0.131303 -33.062960 -4.092402 -0.628076
LeftShoulderDummy -0.067083 -0.019805 0.006913 -0.642346 1.495677 -0.560728
LeftShoulder 11.247770 -3.899806 18.566462
LeftArm -0.744824 42.958007 13.635765
LeftForeArm 92.235343
LeftForeArmRoll -27.598596
LeftHand -9.029363 3.011781 -2.903959
LeftHandThumb1 15.323412 12.563445
LeftHandIndex1 16.472077 40.790995
LeftHandPinky1 14.311464 45.760899
RightShoulderDummy -0.024824 0.006981 0.045005 -0.694060 -1.664371 0.843281
RightShoulder 7.983859 3.719800 21.447914
RightArm -53.229715 50.142704 -2.584968
RightForeArm 116.199228
RightForeArmRoll 7.339542
RightHand -17.500515 -16.231719 12.432704
RightHandThumb1 -1.200155 14.132072
RightHandIndex1 14.392035 59.746177
RightHandPinky1 19.478804 69.220893
LeftUpLeg 15.734111 10.727673 -8.868073
LeftLeg 31.205501
LeftFoot 0.423615 -0.597182 -0.341014 -10.777713 11.542965 -9.522465
LeftToeBase -1.567482
RightUpLeg 11.312104 13.566825 -7.260300
RightLeg 34.951763
RightFoot -0.400649 0.242105 0.075449 -2.337985 4.594923 -22.323384
RightToeBase -0.766279
